<svg width="125" height="110" viewBox="0 0 125 110" fill="none" xmlns="http://www.w3.org/2000/svg">
<g filter="url(#filter0_d_16_3)">
<path d="M26 35.0625L62.25 26L98.5 35.0625L62.25 44.125L26 35.0625Z" fill="#F6CC68" stroke="#F6CC68" stroke-width="4" stroke-linecap="round" stroke-linejoin="round"/>
<path d="M42.3125 40.5V58.5706C42.3125 58.5706 51.375 64.0625 62.25 64.0625C73.125 64.0625 82.1875 58.5706 82.1875 58.5706V40.5M31.4375 36.875V76.75V36.875ZM26 73.125H36.875V84H26V73.125Z" fill="#F6CC68"/>
<path d="M42.3125 40.5V58.5706C42.3125 58.5706 51.375 64.0625 62.25 64.0625C73.125 64.0625 82.1875 58.5706 82.1875 58.5706V40.5M31.4375 36.875V76.75M26 73.125H36.875V84H26V73.125Z" stroke="#F6CC68" stroke-width="4" stroke-linecap="round" stroke-linejoin="round"/>
</g>
<defs>
<filter id="filter0_d_16_3" x="0" y="0" width="124.5" height="110" filterUnits="userSpaceOnUse" color-interpolation-filters="sRGB">
<feFlood flood-opacity="0" result="BackgroundImageFix"/>
<feColorMatrix in="SourceAlpha" type="matrix" values="0 0 0 0 0 0 0 0 0 0 0 0 0 0 0 0 0 0 127 0" result="hardAlpha"/>
<feOffset/>
<feGaussianBlur stdDeviation="12"/>
<feComposite in2="hardAlpha" operator="out"/>
<feColorMatrix type="matrix" values="0 0 0 0 0.964706 0 0 0 0 0.8 0 0 0 0 0.407843 0 0 0 1 0"/>
<feBlend mode="normal" in2="BackgroundImageFix" result="effect1_dropShadow_16_3"/>
<feBlend mode="normal" in="SourceGraphic" in2="effect1_dropShadow_16_3" result="shape"/>
</filter>
</defs>
</svg>
