<svg width="52" height="54" viewBox="0 0 52 54" fill="none" xmlns="http://www.w3.org/2000/svg">
<path fill-rule="evenodd" clip-rule="evenodd" d="M0.986694 12.4738C0.986694 5.95958 6.23088 0.678711 12.6999 0.678711H39.6382C46.1072 0.678711 51.3514 5.95957 51.3514 12.4738V42.1619C51.3514 48.6762 46.1072 53.9571 39.6382 53.9571H12.6999C6.23088 53.9571 0.986694 48.6762 0.986694 42.162V12.4738ZM14.0614 27.3166C14.0614 20.5263 19.5278 15.0216 26.271 15.0216C33.0142 15.0216 38.4807 20.5263 38.4807 27.3166V28.0419C38.4807 34.8323 33.0142 40.3369 26.271 40.3369C19.5278 40.3369 14.0614 34.8322 14.0614 28.0419V27.3166ZM40.4623 8.36348C38.636 8.36348 37.1555 9.85433 37.1555 11.6934C37.1555 13.5324 38.636 15.0233 40.4623 15.0233C42.2885 15.0233 43.769 13.5324 43.769 11.6934C43.769 9.85433 42.2885 8.36348 40.4623 8.36348Z" fill="#F6CC68"/>
<path d="M18.7006 27.3178C18.7006 23.1644 22.0443 19.7974 26.1688 19.7974C30.2934 19.7974 33.637 23.1644 33.637 27.3178C33.637 31.4712 30.2934 34.8382 26.1688 34.8382C22.0443 34.8382 18.7006 31.4712 18.7006 27.3178Z" fill="#F6CC68"/>
</svg>
