<svg width="509" height="46" viewBox="0 0 509 46" fill="none" xmlns="http://www.w3.org/2000/svg">
<path d="M63.6398 44.3622H48.18V17.202L37.8114 44.3622H25.7043L15.3977 17.3222V44.3622H0V1.93951H20.7993L31.8509 29.6404L42.9025 1.93951H63.6398V44.3622Z" fill="white"/>
<path d="M120.604 44.3622H73.7897V1.93951H120.045V11.4335H89.4978V18.4038H117.748V27.9579H89.4978V34.748H120.604V44.3622Z" fill="white"/>
<path d="M170.491 11.4335H154.969V44.3622H139.198V11.4335H123.614V1.93951H170.491V11.4335Z" fill="white"/>
<path d="M219.072 44.3622H201.998L199.638 37.452H182.875L180.515 44.3622H163.255L182.192 1.93951H200.073L219.072 44.3622ZM196.348 28.0781L191.194 13.7169L186.165 28.0781H196.348Z" fill="white"/>
<path d="M260.887 44.3622H222.703V1.93951H238.473V34.0269H260.887V44.3622Z" fill="white"/>
<path d="M325.828 1.93951L315.273 44.3622H298.447L291.617 17.9231L284.663 44.3622H267.713L257.097 1.93951H272.432L277.275 29.2799L283.794 1.93951H299.813L305.773 29.1597L310.554 1.93951H325.828Z" fill="white"/>
<path d="M387.248 22.9706C387.248 26.7562 386.441 35.2888 377.562 41.1174C371.85 44.8429 365.58 45.8043 357.819 45.8043C348.505 45.8043 342.918 43.7613 339.316 41.7783C330.003 36.5506 328.948 27.7777 328.948 23.8118C328.948 13.116 334.66 7.58785 338.447 5.12421C342.173 2.66057 348.071 0.377197 357.881 0.377197C373.403 0.377197 379.673 5.06412 383.275 10.1116C384.703 12.1546 387.248 16.5411 387.248 22.9706ZM371.105 23.0907C371.105 18.4639 368.87 9.81113 358.253 9.81113C349.188 9.81113 345.091 16.2406 345.091 23.1508C345.091 28.8593 348.195 36.4304 358.315 36.4304C369.305 36.4304 371.105 27.7777 371.105 23.0907Z" fill="white"/>
<path d="M450.67 22.9706C450.67 26.7562 449.862 35.2888 440.984 41.1174C435.272 44.8429 429.001 45.8043 421.24 45.8043C411.927 45.8043 406.339 43.7613 402.738 41.7783C393.425 36.5506 392.369 27.7777 392.369 23.8118C392.369 13.116 398.081 7.58785 401.869 5.12421C405.594 2.66057 411.492 0.377197 421.302 0.377197C436.824 0.377197 443.095 5.06412 446.696 10.1116C448.124 12.1546 450.67 16.5411 450.67 22.9706ZM434.527 23.0907C434.527 18.4639 432.292 9.81113 421.675 9.81113C412.61 9.81113 408.512 16.2406 408.512 23.1508C408.512 28.8593 411.617 36.4304 421.737 36.4304C432.726 36.4304 434.527 27.7777 434.527 23.0907Z" fill="white"/>
<path d="M457.778 1.93951H482.675C496.769 1.93951 501.984 6.38607 505.151 10.7726C508.876 15.9402 509 21.3482 509 23.6315C509 26.2154 508.876 36.3704 499.438 41.3577C495.341 43.5209 491.802 44.3622 485.593 44.3622H457.778V1.93951ZM473.113 34.748H481.371C493.54 34.748 493.664 25.2539 493.664 23.271C493.664 21.9491 493.478 17.142 489.629 14.3178C486.648 12.0945 482.427 12.0344 480.874 12.0344H473.113V34.748Z" fill="white"/>
</svg>
