<svg width="60" height="57" viewBox="0 0 60 57" fill="none" xmlns="http://www.w3.org/2000/svg">
<path d="M41.4968 36.4823L39.9991 37.9735C39.9991 37.9735 36.4342 41.5153 26.7073 31.8444C16.9805 22.1735 20.5453 18.6316 20.5453 18.6316L21.4868 17.6902C23.814 15.3795 24.0345 11.6665 22.0036 8.95414L17.8561 3.41426C15.3412 0.0567619 10.486 -0.387613 7.6058 2.47614L2.43789 7.61114C1.0126 9.03314 0.058011 10.8699 0.173219 12.9107C0.469469 18.1346 2.83289 29.3691 16.0127 42.4765C29.9924 56.3739 43.1097 56.9269 48.4718 56.4266C50.1703 56.2686 51.645 55.4061 52.8333 54.2211L57.5075 49.5733C60.6675 46.4363 59.7787 41.0545 55.7365 38.8589L49.4495 35.4389C46.7964 33.9971 43.5706 34.4218 41.4968 36.4823Z" fill="#F6CC68"/>
</svg>
